<svg xmlns="http://www.w3.org/2000/svg" xmlns:xlink="http://www.w3.org/1999/xlink" width="166" zoomAndPan="magnify" viewBox="0 0 124.5 147.000002" height="196" preserveAspectRatio="xMidYMid meet" version="1.0"><defs><g/><clipPath id="5885950738"><path d="M 12.445312 6.109375 L 111.519531 6.109375 L 111.519531 140.195312 L 12.445312 140.195312 Z M 12.445312 6.109375 " clip-rule="nonzero"/></clipPath><clipPath id="0d954c533d"><path d="M 12.445312 42.722656 C 12.445312 22.332031 34.628906 5.804688 62 5.804688 C 89.367188 5.804688 111.554688 22.332031 111.554688 42.722656 L 111.554688 103.28125 C 111.554688 123.667969 89.367188 140.195312 62 140.195312 C 34.628906 140.195312 12.445312 123.667969 12.445312 103.28125 Z M 12.445312 42.722656 " clip-rule="nonzero"/></clipPath><clipPath id="df7d620ceb"><path d="M 14.980469 7.277344 L 109.027344 7.277344 L 109.027344 138.429688 L 14.980469 138.429688 Z M 14.980469 7.277344 " clip-rule="nonzero"/></clipPath><clipPath id="5d07144ee0"><path d="M 14.980469 42.589844 C 14.980469 23.242188 36.035156 7.558594 62.003906 7.558594 C 87.976562 7.558594 109.027344 23.242188 109.027344 42.589844 L 109.027344 103.402344 C 109.027344 122.746094 87.976562 138.429688 62.003906 138.429688 C 36.035156 138.429688 14.980469 122.746094 14.980469 103.402344 Z M 14.980469 42.589844 " clip-rule="nonzero"/></clipPath><clipPath id="1f1078f1b4"><path d="M 14.980469 7.320312 L 108.84375 7.320312 L 108.84375 138.425781 L 14.980469 138.425781 Z M 14.980469 7.320312 " clip-rule="nonzero"/></clipPath><clipPath id="ec3f29bf30"><path d="M 14.980469 42.59375 C 14.980469 23.25 36.03125 7.570312 62 7.570312 C 87.964844 7.570312 109.015625 23.25 109.015625 42.59375 L 109.015625 103.398438 C 109.015625 122.742188 87.964844 138.425781 62 138.425781 C 36.03125 138.425781 14.980469 122.742188 14.980469 103.398438 Z M 14.980469 42.59375 " clip-rule="nonzero"/></clipPath><clipPath id="ec7055cdcb"><path d="M 26.398438 55 L 38 55 L 38 85 L 26.398438 85 Z M 26.398438 55 " clip-rule="nonzero"/></clipPath><clipPath id="876580a47d"><path d="M 33 55 L 97.910156 55 L 97.910156 93.929688 L 33 93.929688 Z M 33 55 " clip-rule="nonzero"/></clipPath><clipPath id="968ac18768"><path d="M 57 18.691406 L 68 18.691406 L 68 53 L 57 53 Z M 57 18.691406 " clip-rule="nonzero"/></clipPath><clipPath id="267e1ae880"><path d="M 53.3125 99.292969 L 60.753906 99.292969 L 60.753906 111.949219 L 53.3125 111.949219 Z M 53.3125 99.292969 " clip-rule="nonzero"/></clipPath></defs><g clip-path="url(#5885950738)"><g clip-path="url(#0d954c533d)"><path stroke-linecap="butt" transform="matrix(0, -0.744932, 0.744932, 0, 12.443798, 140.196432)" fill="none" stroke-linejoin="miter" d="M 130.849154 0.00203357 C 158.221604 0.00203357 180.407971 29.781371 180.407971 66.524428 C 180.407971 103.262241 158.221604 133.046822 130.849154 133.046822 L 49.555076 133.046822 C 22.18787 133.046822 0.00150311 103.262241 0.00150311 66.524428 C 0.00150311 29.781371 22.18787 0.00203357 49.555076 0.00203357 Z M 130.849154 0.00203357 " stroke="#bf935b" stroke-width="4" stroke-opacity="1" stroke-miterlimit="4"/></g></g><g clip-path="url(#df7d620ceb)"><g clip-path="url(#5d07144ee0)"><path fill="#ffffff" d="M 14.980469 138.429688 L 14.980469 7.644531 L 109.027344 7.644531 L 109.027344 138.429688 Z M 14.980469 138.429688 " fill-opacity="1" fill-rule="nonzero"/></g></g><g clip-path="url(#1f1078f1b4)"><g clip-path="url(#ec3f29bf30)"><path stroke-linecap="butt" transform="matrix(0, -0.744932, 0.744932, 0, 14.980591, 138.424366)" fill="none" stroke-linejoin="miter" d="M 128.64337 -0.000163704 C 154.610491 -0.000163704 175.65896 28.258482 175.65896 63.119027 C 175.65896 97.974329 154.610491 126.232975 128.64337 126.232975 L 47.018934 126.232975 C 21.051813 126.232975 -0.00190046 97.974329 -0.00190046 63.119027 C -0.00190046 28.258482 21.051813 -0.000163704 47.018934 -0.000163704 Z M 128.64337 -0.000163704 " stroke="#845333" stroke-width="2" stroke-opacity="1" stroke-miterlimit="4"/></g></g><path fill="#bf935b" d="M 71.410156 64.777344 C 72.132812 64.777344 72.71875 64.195312 72.71875 63.476562 C 72.71875 62.757812 72.132812 62.175781 71.410156 62.175781 C 70.6875 62.175781 70.101562 62.757812 70.101562 63.476562 C 70.101562 64.195312 70.6875 64.777344 71.410156 64.777344 " fill-opacity="1" fill-rule="nonzero"/><path fill="#bf935b" d="M 67.484375 59.875 C 68.683594 59.875 69.652344 58.910156 69.652344 57.722656 C 69.652344 56.53125 68.683594 55.566406 67.484375 55.566406 C 66.285156 55.566406 65.316406 56.53125 65.316406 57.722656 C 65.316406 58.910156 66.285156 59.875 67.484375 59.875 " fill-opacity="1" fill-rule="nonzero"/><path fill="#bf935b" d="M 66.703125 69.132812 C 68.148438 69.132812 69.320312 67.964844 69.320312 66.53125 C 69.320312 65.09375 68.148438 63.925781 66.703125 63.925781 C 65.257812 63.925781 64.085938 65.09375 64.085938 66.53125 C 64.085938 67.964844 65.257812 69.132812 66.703125 69.132812 " fill-opacity="1" fill-rule="nonzero"/><path fill="#845333" d="M 54.917969 87.578125 C 65.785156 87.578125 74.84375 79.753906 76.710938 69.476562 C 68.773438 74.035156 60.453125 69.695312 52.328125 66.027344 L 38.242188 80.03125 C 42.304688 84.65625 48.273438 87.578125 54.917969 87.578125 " fill-opacity="1" fill-rule="nonzero"/><path fill="#bf935b" d="M 32.851562 63.746094 C 32.800781 64.34375 32.769531 64.949219 32.769531 65.558594 C 32.769531 71.09375 34.835938 76.160156 38.242188 80.03125 L 52.328125 66.027344 C 45.59375 62.988281 38.992188 60.410156 32.851562 63.746094 " fill-opacity="1" fill-rule="nonzero"/><g clip-path="url(#ec7055cdcb)"><path fill="#845333" d="M 29.867188 55.925781 C 28.765625 55.925781 27.808594 56.65625 27.503906 57.710938 C 26.785156 60.203125 26.398438 62.835938 26.398438 65.558594 C 26.398438 72.851562 29.167969 79.503906 33.71875 84.527344 L 37.195312 81.074219 C 33.527344 76.9375 31.300781 71.507812 31.300781 65.558594 C 31.300781 63.289062 31.625 61.097656 32.230469 59.019531 C 32.679688 57.46875 31.492188 55.925781 29.867188 55.925781 " fill-opacity="1" fill-rule="nonzero"/></g><g clip-path="url(#876580a47d)"><path fill="#351f17" d="M 84.835938 55.925781 L 76.460938 55.925781 C 77.835938 58.953125 78.582031 62.320312 78.535156 65.867188 C 78.371094 78.632812 67.816406 89.007812 54.976562 89.039062 C 47.894531 89.058594 41.535156 85.972656 37.195312 81.074219 L 33.71875 84.527344 C 38.941406 90.292969 46.503906 93.914062 54.917969 93.914062 C 70.671875 93.914062 83.441406 81.21875 83.441406 65.558594 C 83.441406 63.757812 83.273438 62 82.949219 60.292969 L 84.875 60.292969 C 89.527344 60.292969 93.429688 63.960938 93.5 68.585938 C 93.554688 72.488281 90.929688 75.800781 87.339844 76.8125 C 86.40625 77.074219 85.746094 77.902344 85.746094 78.863281 L 85.746094 78.949219 C 85.746094 80.363281 87.101562 81.410156 88.472656 81.035156 C 93.910156 79.53125 97.910156 74.550781 97.890625 68.664062 C 97.863281 61.589844 91.949219 55.925781 84.835938 55.925781 " fill-opacity="1" fill-rule="nonzero"/></g><g clip-path="url(#968ac18768)"><path fill="#bf935b" d="M 61.839844 52.277344 C 61.839844 52.277344 62.113281 51.746094 62.65625 50.84375 C 62.769531 50.617188 62.894531 50.367188 63.027344 50.09375 C 63.15625 49.820312 63.328125 49.542969 63.441406 49.21875 C 63.5625 48.898438 63.714844 48.570312 63.847656 48.214844 C 63.949219 47.855469 64.070312 47.484375 64.1875 47.101562 C 64.253906 46.707031 64.359375 46.304688 64.417969 45.890625 C 64.433594 45.679688 64.453125 45.464844 64.476562 45.253906 C 64.484375 45.144531 64.496094 45.039062 64.507812 44.929688 C 64.503906 44.820312 64.5 44.710938 64.5 44.597656 C 64.492188 44.378906 64.492188 44.15625 64.492188 43.929688 C 64.464844 43.707031 64.4375 43.480469 64.410156 43.25 C 64.394531 43.136719 64.386719 43.019531 64.367188 42.90625 C 64.339844 42.789062 64.316406 42.671875 64.289062 42.558594 C 64.234375 42.324219 64.203125 42.089844 64.128906 41.855469 C 64.058594 41.621094 63.980469 41.382812 63.910156 41.144531 C 63.839844 40.90625 63.730469 40.667969 63.644531 40.425781 C 63.597656 40.304688 63.554688 40.183594 63.503906 40.066406 C 63.445312 39.945312 63.390625 39.824219 63.332031 39.703125 C 63.21875 39.460938 63.125 39.214844 62.992188 38.972656 C 62.515625 37.996094 61.917969 37.007812 61.324219 36 C 60.726562 34.996094 60.097656 33.972656 59.542969 32.929688 C 59.398438 32.671875 59.265625 32.40625 59.132812 32.144531 C 59.003906 31.878906 58.875 31.621094 58.761719 31.351562 C 58.648438 31.082031 58.523438 30.824219 58.421875 30.554688 C 58.316406 30.289062 58.226562 30.019531 58.132812 29.757812 C 57.792969 28.6875 57.585938 27.621094 57.574219 26.601562 C 57.566406 26.476562 57.578125 26.347656 57.585938 26.222656 C 57.59375 26.097656 57.601562 25.972656 57.609375 25.847656 C 57.632812 25.601562 57.628906 25.359375 57.695312 25.121094 C 57.742188 24.886719 57.792969 24.652344 57.839844 24.425781 C 57.851562 24.367188 57.863281 24.3125 57.875 24.257812 C 57.894531 24.199219 57.914062 24.144531 57.933594 24.089844 C 57.972656 23.980469 58.007812 23.871094 58.046875 23.765625 C 58.125 23.554688 58.203125 23.34375 58.277344 23.140625 C 58.375 22.941406 58.46875 22.75 58.570312 22.5625 C 58.667969 22.375 58.765625 22.195312 58.859375 22.019531 C 58.972656 21.847656 59.082031 21.683594 59.195312 21.527344 C 59.605469 20.882812 60.101562 20.378906 60.476562 19.957031 C 60.523438 19.90625 60.570312 19.855469 60.617188 19.804688 C 60.667969 19.757812 60.714844 19.710938 60.765625 19.667969 C 60.863281 19.582031 60.953125 19.496094 61.039062 19.421875 C 61.207031 19.269531 61.351562 19.140625 61.472656 19.035156 C 61.710938 18.832031 61.839844 18.722656 61.839844 18.722656 C 61.839844 18.722656 61.777344 18.859375 61.660156 19.109375 C 61.550781 19.359375 61.347656 19.714844 61.152344 20.175781 C 60.980469 20.644531 60.714844 21.1875 60.558594 21.835938 C 60.511719 21.996094 60.460938 22.160156 60.410156 22.328125 C 60.382812 22.5 60.351562 22.671875 60.320312 22.851562 C 60.289062 23.035156 60.253906 23.214844 60.214844 23.402344 C 60.203125 23.589844 60.191406 23.78125 60.179688 23.976562 C 60.105469 24.753906 60.203125 25.59375 60.371094 26.460938 C 60.429688 26.679688 60.480469 26.898438 60.535156 27.121094 C 60.558594 27.234375 60.597656 27.34375 60.636719 27.457031 C 60.679688 27.566406 60.71875 27.679688 60.757812 27.792969 C 60.796875 27.90625 60.835938 28.019531 60.875 28.132812 C 60.917969 28.246094 60.972656 28.359375 61.015625 28.476562 C 61.117188 28.703125 61.203125 28.933594 61.320312 29.167969 C 61.433594 29.398438 61.554688 29.628906 61.667969 29.867188 C 61.785156 30.101562 61.925781 30.339844 62.050781 30.578125 C 62.175781 30.816406 62.324219 31.054688 62.46875 31.292969 C 62.609375 31.535156 62.746094 31.777344 62.902344 32.023438 C 63.5 33 64.148438 34 64.765625 35.035156 C 65.378906 36.070312 65.972656 37.132812 66.429688 38.230469 C 66.554688 38.5 66.652344 38.78125 66.753906 39.054688 C 66.804688 39.191406 66.851562 39.332031 66.902344 39.46875 C 66.949219 39.605469 66.984375 39.746094 67.023438 39.886719 C 67.097656 40.164062 67.1875 40.4375 67.246094 40.714844 C 67.296875 40.996094 67.339844 41.273438 67.390625 41.546875 C 67.433594 41.824219 67.4375 42.101562 67.460938 42.375 C 67.46875 42.511719 67.480469 42.644531 67.488281 42.78125 C 67.488281 42.917969 67.476562 43.050781 67.46875 43.183594 C 67.453125 43.453125 67.441406 43.71875 67.417969 43.980469 C 67.375 44.238281 67.332031 44.496094 67.28125 44.746094 C 67.253906 44.871094 67.230469 44.996094 67.207031 45.121094 C 67.167969 45.246094 67.128906 45.367188 67.089844 45.488281 C 67.015625 45.726562 66.941406 45.964844 66.859375 46.195312 C 66.777344 46.425781 66.65625 46.644531 66.558594 46.859375 C 66.457031 47.078125 66.359375 47.289062 66.253906 47.496094 C 66 47.898438 65.765625 48.277344 65.527344 48.636719 C 65.261719 48.988281 65 49.3125 64.75 49.613281 C 64.511719 49.917969 64.226562 50.1875 63.980469 50.433594 C 63.730469 50.683594 63.507812 50.910156 63.296875 51.105469 C 62.390625 51.859375 61.839844 52.277344 61.839844 52.277344 " fill-opacity="1" fill-rule="nonzero"/></g><path fill="#845333" d="M 55.035156 57.34375 C 55.035156 57.34375 55.308594 56.8125 55.855469 55.914062 C 55.96875 55.6875 56.089844 55.433594 56.226562 55.160156 C 56.351562 54.890625 56.527344 54.609375 56.636719 54.285156 C 56.757812 53.964844 56.914062 53.636719 57.042969 53.285156 C 57.148438 52.925781 57.269531 52.554688 57.386719 52.167969 C 57.453125 51.773438 57.558594 51.375 57.617188 50.957031 C 57.628906 50.746094 57.652344 50.535156 57.671875 50.320312 C 57.683594 50.210938 57.695312 50.105469 57.707031 49.996094 C 57.703125 49.886719 57.699219 49.777344 57.699219 49.667969 C 57.691406 49.445312 57.6875 49.222656 57.691406 49 C 57.664062 48.773438 57.636719 48.546875 57.609375 48.316406 C 57.59375 48.203125 57.582031 48.085938 57.5625 47.972656 C 57.539062 47.855469 57.515625 47.742188 57.488281 47.625 C 57.433594 47.390625 57.402344 47.15625 57.328125 46.921875 C 57.253906 46.6875 57.175781 46.449219 57.109375 46.210938 C 57.039062 45.972656 56.929688 45.734375 56.84375 45.496094 C 56.792969 45.375 56.753906 45.253906 56.699219 45.132812 C 56.644531 45.011719 56.589844 44.890625 56.53125 44.769531 C 56.417969 44.527344 56.324219 44.285156 56.191406 44.039062 C 55.714844 43.0625 55.117188 42.074219 54.519531 41.070312 C 53.925781 40.0625 53.296875 39.042969 52.742188 37.996094 C 52.597656 37.738281 52.464844 37.472656 52.332031 37.210938 C 52.203125 36.949219 52.070312 36.6875 51.960938 36.417969 C 51.847656 36.152344 51.722656 35.890625 51.617188 35.625 C 51.515625 35.355469 51.425781 35.089844 51.332031 34.824219 C 50.992188 33.753906 50.785156 32.6875 50.773438 31.667969 C 50.761719 31.542969 50.773438 31.414062 50.785156 31.289062 C 50.792969 31.164062 50.800781 31.039062 50.808594 30.917969 C 50.828125 30.667969 50.828125 30.425781 50.890625 30.191406 C 50.941406 29.953125 50.992188 29.722656 51.039062 29.492188 C 51.050781 29.4375 51.0625 29.378906 51.074219 29.324219 C 51.09375 29.269531 51.113281 29.214844 51.132812 29.15625 C 51.167969 29.046875 51.207031 28.941406 51.246094 28.832031 C 51.324219 28.621094 51.398438 28.410156 51.472656 28.207031 C 51.574219 28.007812 51.667969 27.816406 51.769531 27.628906 C 51.867188 27.441406 51.964844 27.261719 52.058594 27.085938 C 52.171875 26.914062 52.28125 26.75 52.394531 26.59375 C 52.804688 25.949219 53.300781 25.445312 53.675781 25.023438 C 53.722656 24.972656 53.769531 24.921875 53.8125 24.871094 C 53.867188 24.824219 53.914062 24.78125 53.964844 24.734375 C 54.058594 24.648438 54.152344 24.566406 54.234375 24.488281 C 54.40625 24.335938 54.550781 24.207031 54.671875 24.105469 C 54.910156 23.902344 55.035156 23.792969 55.035156 23.792969 C 55.035156 23.792969 54.976562 23.925781 54.859375 24.175781 C 54.75 24.429688 54.546875 24.78125 54.351562 25.242188 C 54.179688 25.710938 53.914062 26.257812 53.757812 26.902344 C 53.710938 27.0625 53.660156 27.226562 53.609375 27.394531 C 53.582031 27.566406 53.550781 27.742188 53.519531 27.921875 C 53.488281 28.101562 53.449219 28.28125 53.414062 28.46875 C 53.402344 28.65625 53.390625 28.847656 53.378906 29.042969 C 53.304688 29.820312 53.398438 30.660156 53.566406 31.53125 C 53.628906 31.746094 53.679688 31.96875 53.734375 32.191406 C 53.757812 32.300781 53.796875 32.410156 53.835938 32.523438 C 53.875 32.636719 53.914062 32.746094 53.957031 32.859375 C 53.996094 32.972656 54.035156 33.085938 54.074219 33.199219 C 54.117188 33.3125 54.167969 33.425781 54.214844 33.542969 C 54.316406 33.769531 54.402344 34.003906 54.515625 34.234375 C 54.632812 34.464844 54.753906 34.699219 54.867188 34.933594 C 54.984375 35.167969 55.121094 35.40625 55.25 35.644531 C 55.375 35.882812 55.523438 36.121094 55.667969 36.363281 C 55.808594 36.605469 55.945312 36.847656 56.101562 37.089844 C 56.699219 38.066406 57.347656 39.070312 57.964844 40.105469 C 58.574219 41.140625 59.171875 42.199219 59.628906 43.296875 C 59.753906 43.566406 59.851562 43.847656 59.953125 44.121094 C 60.003906 44.261719 60.050781 44.398438 60.101562 44.535156 C 60.148438 44.671875 60.179688 44.8125 60.222656 44.953125 C 60.296875 45.230469 60.386719 45.503906 60.441406 45.785156 C 60.496094 46.0625 60.539062 46.34375 60.585938 46.617188 C 60.632812 46.890625 60.636719 47.167969 60.660156 47.441406 C 60.667969 47.578125 60.675781 47.714844 60.6875 47.847656 C 60.683594 47.984375 60.671875 48.117188 60.667969 48.253906 C 60.652344 48.519531 60.640625 48.785156 60.617188 49.046875 C 60.574219 49.304688 60.527344 49.5625 60.476562 49.816406 C 60.453125 49.941406 60.429688 50.066406 60.40625 50.1875 C 60.367188 50.3125 60.328125 50.433594 60.289062 50.554688 C 60.210938 50.792969 60.136719 51.03125 60.058594 51.261719 C 59.976562 51.492188 59.855469 51.710938 59.757812 51.929688 C 59.65625 52.144531 59.558594 52.359375 59.453125 52.5625 C 59.199219 52.964844 58.960938 53.347656 58.726562 53.703125 C 58.460938 54.054688 58.195312 54.378906 57.945312 54.679688 C 57.710938 54.984375 57.425781 55.253906 57.179688 55.503906 C 56.929688 55.75 56.703125 55.976562 56.492188 56.175781 C 55.589844 56.929688 55.035156 57.34375 55.035156 57.34375 " fill-opacity="1" fill-rule="nonzero"/><g fill="#000000" fill-opacity="1"><g transform="translate(30.806379, 110.146479)"><g><path d="M 8.453125 -5.53125 C 9.484375 -4.988281 10.003906 -4.019531 10.015625 -2.625 C 10.015625 -2.132812 9.890625 -1.691406 9.640625 -1.296875 C 9.390625 -0.898438 9.054688 -0.582031 8.640625 -0.34375 C 8.222656 -0.113281 7.769531 0 7.28125 0 L 0.453125 0 C 0.453125 0 0.515625 -0.046875 0.640625 -0.140625 C 0.765625 -0.234375 0.882812 -0.375 1 -0.5625 C 1.125 -0.757812 1.1875 -1.003906 1.1875 -1.296875 L 1.1875 -8.9375 C 1.1875 -9.269531 1.125 -9.535156 1 -9.734375 C 0.882812 -9.929688 0.765625 -10.066406 0.640625 -10.140625 C 0.515625 -10.222656 0.453125 -10.265625 0.453125 -10.265625 L 7.125 -10.265625 C 7.5625 -10.265625 7.960938 -10.15625 8.328125 -9.9375 C 8.691406 -9.726562 8.988281 -9.445312 9.21875 -9.09375 C 9.445312 -8.75 9.566406 -8.359375 9.578125 -7.921875 C 9.578125 -7.335938 9.476562 -6.851562 9.28125 -6.46875 C 9.09375 -6.09375 8.816406 -5.78125 8.453125 -5.53125 Z M 6.71875 -9.1875 L 3.421875 -9.1875 C 3.109375 -9.1875 2.84375 -9.078125 2.625 -8.859375 C 2.414062 -8.648438 2.3125 -8.390625 2.3125 -8.078125 L 2.3125 -6.03125 L 6.578125 -6.03125 C 6.953125 -6.03125 7.300781 -6.101562 7.625 -6.25 C 7.945312 -6.394531 8.175781 -6.632812 8.3125 -6.96875 C 8.46875 -7.382812 8.488281 -7.757812 8.375 -8.09375 C 8.257812 -8.425781 8.050781 -8.691406 7.75 -8.890625 C 7.445312 -9.085938 7.101562 -9.1875 6.71875 -9.1875 Z M 6.8125 -1.0625 C 7.25 -1.0625 7.640625 -1.164062 7.984375 -1.375 C 8.335938 -1.59375 8.59375 -1.878906 8.75 -2.234375 C 8.914062 -2.597656 8.945312 -3.003906 8.84375 -3.453125 C 8.707031 -3.929688 8.4375 -4.300781 8.03125 -4.5625 C 7.625 -4.820312 7.171875 -4.953125 6.671875 -4.953125 L 2.3125 -4.953125 L 2.3125 -2.109375 C 2.3125 -1.828125 2.410156 -1.582031 2.609375 -1.375 C 2.816406 -1.164062 3.0625 -1.0625 3.34375 -1.0625 Z M 6.8125 -1.0625 "/></g></g></g><g fill="#000000" fill-opacity="1"><g transform="translate(41.389909, 110.146479)"><g><path d="M 8.9375 -1.96875 C 9.207031 -1.601562 9.550781 -1.273438 9.96875 -0.984375 C 10.382812 -0.703125 10.828125 -0.5625 11.296875 -0.5625 L 11.296875 0 C 10.890625 0 10.472656 -0.0546875 10.046875 -0.171875 C 9.617188 -0.296875 9.21875 -0.472656 8.84375 -0.703125 C 8.476562 -0.929688 8.171875 -1.207031 7.921875 -1.53125 L 5.84375 -4.21875 L 2.265625 -4.21875 L 2.265625 -1.3125 C 2.265625 -1.007812 2.328125 -0.765625 2.453125 -0.578125 C 2.578125 -0.390625 2.695312 -0.242188 2.8125 -0.140625 C 2.9375 -0.046875 3 0 3 0 L 0.421875 0 C 0.421875 0 0.484375 -0.046875 0.609375 -0.140625 C 0.734375 -0.242188 0.851562 -0.390625 0.96875 -0.578125 C 1.09375 -0.765625 1.15625 -1.007812 1.15625 -1.3125 L 1.15625 -8.828125 C 1.15625 -9.148438 1.09375 -9.414062 0.96875 -9.625 C 0.851562 -9.84375 0.734375 -10.003906 0.609375 -10.109375 C 0.484375 -10.210938 0.421875 -10.265625 0.421875 -10.265625 L 7.109375 -10.265625 C 7.648438 -10.265625 8.144531 -10.128906 8.59375 -9.859375 C 9.050781 -9.585938 9.410156 -9.226562 9.671875 -8.78125 C 9.929688 -8.332031 10.0625 -7.832031 10.0625 -7.28125 C 10.0625 -6.675781 9.929688 -6.144531 9.671875 -5.6875 C 9.421875 -5.238281 9.078125 -4.882812 8.640625 -4.625 C 8.203125 -4.363281 7.71875 -4.226562 7.1875 -4.21875 Z M 2.265625 -8.15625 L 2.265625 -5.296875 L 6.6875 -5.296875 C 7.03125 -5.296875 7.359375 -5.351562 7.671875 -5.46875 C 7.984375 -5.59375 8.25 -5.765625 8.46875 -5.984375 C 8.6875 -6.210938 8.820312 -6.472656 8.875 -6.765625 C 8.976562 -7.222656 8.945312 -7.632812 8.78125 -8 C 8.613281 -8.375 8.359375 -8.664062 8.015625 -8.875 C 7.671875 -9.082031 7.28125 -9.1875 6.84375 -9.1875 L 3.3125 -9.1875 C 3.03125 -9.1875 2.785156 -9.082031 2.578125 -8.875 C 2.378906 -8.675781 2.273438 -8.4375 2.265625 -8.15625 Z M 2.265625 -8.15625 "/></g></g></g><g fill="#000000" fill-opacity="1"><g transform="translate(52.811933, 110.146479)"><g/></g></g><g fill="#000000" fill-opacity="1"><g transform="translate(57.209523, 110.146479)"><g/></g></g><g fill="#000000" fill-opacity="1"><g transform="translate(61.612977, 110.146479)"><g><path d="M 17.296875 -8.921875 C 17.347656 -9.097656 17.320312 -9.265625 17.21875 -9.421875 C 17.125 -9.585938 16.992188 -9.734375 16.828125 -9.859375 C 16.671875 -9.984375 16.523438 -10.082031 16.390625 -10.15625 C 16.253906 -10.226562 16.1875 -10.265625 16.1875 -10.265625 L 19.8125 -10.265625 C 19.8125 -10.265625 19.722656 -10.210938 19.546875 -10.109375 C 19.378906 -10.015625 19.1875 -9.863281 18.96875 -9.65625 C 18.757812 -9.445312 18.585938 -9.179688 18.453125 -8.859375 L 15.671875 0 L 13.1875 0 L 10.296875 -9.1875 L 9.40625 -9.1875 L 6.515625 0 L 4.03125 0 L 1.25 -8.84375 C 1.125 -9.175781 0.953125 -9.445312 0.734375 -9.65625 C 0.515625 -9.863281 0.316406 -10.015625 0.140625 -10.109375 C -0.0351562 -10.210938 -0.125 -10.265625 -0.125 -10.265625 L 3.5 -10.265625 C 3.5 -10.265625 3.429688 -10.226562 3.296875 -10.15625 C 3.171875 -10.082031 3.023438 -9.984375 2.859375 -9.859375 C 2.703125 -9.734375 2.570312 -9.585938 2.46875 -9.421875 C 2.363281 -9.265625 2.34375 -9.097656 2.40625 -8.921875 L 4.875 -1.0625 L 5.6875 -1.0625 L 8.578125 -10.265625 L 11.140625 -10.265625 L 14.03125 -1.0625 L 14.828125 -1.0625 Z M 17.296875 -8.921875 "/></g></g></g><g fill="#000000" fill-opacity="1"><g transform="translate(81.328832, 110.146479)"><g><path d="M 8.859375 -10.265625 L 11.453125 -10.265625 C 11.453125 -10.265625 11.390625 -10.21875 11.265625 -10.125 C 11.140625 -10.039062 11.019531 -9.898438 10.90625 -9.703125 C 10.789062 -9.503906 10.734375 -9.25 10.734375 -8.9375 L 10.734375 0 L 8.390625 0 L 3.078125 -9.1875 L 2.28125 -9.1875 L 2.28125 -1.3125 C 2.28125 -1.019531 2.34375 -0.773438 2.46875 -0.578125 C 2.59375 -0.390625 2.710938 -0.242188 2.828125 -0.140625 C 2.953125 -0.046875 3.015625 0 3.015625 0 L 0.4375 0 C 0.4375 0 0.5 -0.046875 0.625 -0.140625 C 0.75 -0.234375 0.867188 -0.375 0.984375 -0.5625 C 1.109375 -0.757812 1.171875 -1.007812 1.171875 -1.3125 L 1.171875 -10.265625 L 3.703125 -10.265625 L 9.015625 -1.0625 L 9.59375 -1.0625 L 9.59375 -8.9375 C 9.59375 -9.25 9.53125 -9.503906 9.40625 -9.703125 C 9.289062 -9.898438 9.171875 -10.039062 9.046875 -10.125 C 8.921875 -10.21875 8.859375 -10.265625 8.859375 -10.265625 Z M 8.859375 -10.265625 "/></g></g></g><g clip-path="url(#267e1ae880)"><path fill="#000000" d="M 57.519531 99.585938 C 57.519531 99.585938 59.667969 100.335938 60.113281 103.078125 C 60.113281 103.078125 59.4375 100.660156 57.519531 99.585938 Z M 57.050781 99.296875 C 57.011719 99.296875 56.96875 99.296875 56.925781 99.300781 C 56.925781 99.308594 56.921875 99.316406 56.921875 99.324219 C 56.875 99.511719 56.828125 99.742188 56.789062 100.003906 C 56.746094 100.265625 56.710938 100.566406 56.691406 100.890625 C 56.667969 101.214844 56.660156 101.566406 56.671875 101.9375 C 56.683594 102.308594 56.71875 102.695312 56.773438 103.09375 C 56.777344 103.117188 56.78125 103.144531 56.785156 103.167969 C 56.789062 103.191406 56.792969 103.21875 56.796875 103.242188 C 56.808594 103.292969 56.816406 103.34375 56.824219 103.394531 L 56.835938 103.46875 C 56.839844 103.496094 56.84375 103.519531 56.851562 103.542969 C 56.859375 103.59375 56.871094 103.644531 56.878906 103.695312 C 56.898438 103.796875 56.925781 103.898438 56.949219 104 C 56.960938 104.050781 56.96875 104.101562 56.984375 104.152344 C 56.996094 104.203125 57.007812 104.253906 57.023438 104.304688 C 57.035156 104.359375 57.050781 104.410156 57.0625 104.460938 C 57.078125 104.511719 57.09375 104.5625 57.109375 104.613281 C 57.140625 104.714844 57.167969 104.816406 57.203125 104.917969 L 57.25 105.070312 C 57.269531 105.121094 57.285156 105.171875 57.304688 105.222656 C 57.34375 105.324219 57.378906 105.425781 57.417969 105.53125 C 57.453125 105.632812 57.492188 105.738281 57.527344 105.84375 C 57.546875 105.894531 57.566406 105.953125 57.582031 106.007812 C 57.597656 106.0625 57.617188 106.117188 57.632812 106.175781 C 57.671875 106.285156 57.695312 106.394531 57.726562 106.507812 C 57.738281 106.5625 57.753906 106.617188 57.765625 106.671875 C 57.777344 106.726562 57.789062 106.785156 57.800781 106.839844 C 57.8125 106.894531 57.828125 106.949219 57.839844 107.003906 C 57.847656 107.058594 57.855469 107.117188 57.867188 107.171875 C 57.875 107.226562 57.886719 107.28125 57.894531 107.335938 C 57.902344 107.390625 57.90625 107.449219 57.914062 107.503906 C 57.929688 107.613281 57.945312 107.722656 57.949219 107.832031 C 57.960938 107.941406 57.96875 108.050781 57.972656 108.15625 C 57.992188 108.589844 57.972656 109.003906 57.925781 109.394531 C 57.914062 109.492188 57.902344 109.589844 57.886719 109.683594 C 57.871094 109.777344 57.855469 109.871094 57.835938 109.960938 C 57.816406 110.050781 57.800781 110.140625 57.777344 110.226562 C 57.769531 110.269531 57.757812 110.3125 57.746094 110.355469 C 57.738281 110.398438 57.726562 110.441406 57.714844 110.480469 C 57.621094 110.8125 57.515625 111.105469 57.40625 111.359375 C 57.308594 111.589844 57.207031 111.785156 57.117188 111.949219 C 59.152344 111.890625 60.792969 109.082031 60.792969 105.621094 C 60.792969 102.128906 59.117188 99.296875 57.050781 99.296875 Z M 56.863281 106.746094 C 56.863281 106.746094 57.535156 108.574219 57.082031 110.402344 C 57.082031 110.402344 57.234375 108.617188 56.863281 106.746094 Z M 57.3125 110.398438 C 57.316406 110.359375 57.324219 110.316406 57.328125 110.277344 C 57.335938 110.234375 57.339844 110.195312 57.34375 110.152344 C 57.355469 110.066406 57.359375 109.984375 57.367188 109.894531 C 57.375 109.808594 57.378906 109.71875 57.386719 109.632812 C 57.394531 109.542969 57.394531 109.449219 57.394531 109.359375 C 57.40625 108.988281 57.390625 108.601562 57.347656 108.203125 C 57.339844 108.105469 57.320312 108.003906 57.308594 107.902344 C 57.296875 107.800781 57.277344 107.703125 57.261719 107.601562 C 57.253906 107.550781 57.246094 107.5 57.234375 107.449219 C 57.222656 107.398438 57.214844 107.347656 57.203125 107.296875 C 57.191406 107.246094 57.183594 107.195312 57.171875 107.144531 C 57.160156 107.09375 57.148438 107.042969 57.132812 106.992188 C 57.121094 106.941406 57.109375 106.886719 57.097656 106.835938 C 57.085938 106.785156 57.070312 106.734375 57.054688 106.683594 C 57.023438 106.585938 57 106.480469 56.964844 106.382812 L 56.917969 106.234375 C 56.902344 106.183594 56.886719 106.132812 56.867188 106.082031 C 56.828125 105.976562 56.792969 105.875 56.753906 105.769531 C 56.714844 105.664062 56.679688 105.558594 56.640625 105.453125 C 56.621094 105.398438 56.601562 105.34375 56.585938 105.289062 C 56.570312 105.234375 56.550781 105.183594 56.535156 105.128906 C 56.519531 105.074219 56.5 105.019531 56.484375 104.964844 C 56.46875 104.910156 56.457031 104.855469 56.441406 104.800781 C 56.425781 104.746094 56.410156 104.691406 56.398438 104.636719 C 56.382812 104.578125 56.371094 104.523438 56.359375 104.46875 C 56.347656 104.414062 56.332031 104.359375 56.320312 104.304688 C 56.308594 104.25 56.296875 104.195312 56.289062 104.140625 C 56.269531 104.03125 56.246094 103.921875 56.230469 103.8125 C 56.195312 103.59375 56.171875 103.375 56.15625 103.164062 C 56.117188 102.734375 56.117188 102.320312 56.140625 101.929688 C 56.167969 101.535156 56.21875 101.167969 56.285156 100.835938 C 56.355469 100.5 56.4375 100.199219 56.523438 99.9375 C 56.605469 99.695312 56.691406 99.484375 56.769531 99.3125 C 54.835938 99.558594 53.3125 102.289062 53.3125 105.621094 C 53.3125 109.0625 54.933594 111.859375 56.957031 111.945312 C 56.957031 111.945312 56.957031 111.941406 56.960938 111.9375 C 57.019531 111.753906 57.085938 111.53125 57.148438 111.273438 C 57.210938 111.011719 57.269531 110.71875 57.3125 110.398438 " fill-opacity="1" fill-rule="nonzero"/></g><g fill="#000000" fill-opacity="1"><g transform="translate(38.404553, 120.410132)"><g><path d="M 5.140625 -1.78125 L 5.484375 -1.578125 C 5.484375 -1.578125 5.457031 -1.519531 5.40625 -1.40625 C 5.351562 -1.289062 5.269531 -1.148438 5.15625 -0.984375 C 5.039062 -0.828125 4.882812 -0.664062 4.6875 -0.5 C 4.488281 -0.34375 4.242188 -0.207031 3.953125 -0.09375 C 3.660156 0.0195312 3.316406 0.078125 2.921875 0.078125 C 2.566406 0.078125 2.226562 0.015625 1.90625 -0.109375 C 1.582031 -0.242188 1.289062 -0.425781 1.03125 -0.65625 C 0.78125 -0.894531 0.578125 -1.164062 0.421875 -1.46875 C 0.273438 -1.78125 0.203125 -2.109375 0.203125 -2.453125 C 0.203125 -2.804688 0.273438 -3.132812 0.421875 -3.4375 C 0.578125 -3.75 0.78125 -4.019531 1.03125 -4.25 C 1.289062 -4.476562 1.582031 -4.65625 1.90625 -4.78125 C 2.226562 -4.914062 2.566406 -4.984375 2.921875 -4.984375 C 3.242188 -4.984375 3.5625 -4.941406 3.875 -4.859375 C 4.195312 -4.785156 4.484375 -4.671875 4.734375 -4.515625 C 4.984375 -4.359375 5.179688 -4.164062 5.328125 -3.9375 C 5.472656 -3.71875 5.546875 -3.46875 5.546875 -3.1875 L 4.765625 -3.265625 C 4.765625 -3.460938 4.6875 -3.632812 4.53125 -3.78125 C 4.375 -3.925781 4.15625 -4.035156 3.875 -4.109375 C 3.59375 -4.179688 3.269531 -4.21875 2.90625 -4.21875 C 2.507812 -4.21875 2.171875 -4.140625 1.890625 -3.984375 C 1.609375 -3.828125 1.390625 -3.613281 1.234375 -3.34375 C 1.078125 -3.082031 1 -2.785156 1 -2.453125 C 1 -2.128906 1.078125 -1.832031 1.234375 -1.5625 C 1.390625 -1.289062 1.609375 -1.078125 1.890625 -0.921875 C 2.171875 -0.773438 2.507812 -0.703125 2.90625 -0.703125 C 3.257812 -0.703125 3.5625 -0.734375 3.8125 -0.796875 C 4.0625 -0.867188 4.269531 -0.957031 4.4375 -1.0625 C 4.613281 -1.175781 4.753906 -1.285156 4.859375 -1.390625 C 4.960938 -1.503906 5.035156 -1.597656 5.078125 -1.671875 C 5.117188 -1.742188 5.140625 -1.78125 5.140625 -1.78125 Z M 5.140625 -1.78125 "/></g></g></g><g fill="#000000" fill-opacity="1"><g transform="translate(44.168384, 120.410132)"><g><path d="M 2.375 -3.796875 C 2.769531 -3.796875 3.128906 -3.707031 3.453125 -3.53125 C 3.773438 -3.363281 4.03125 -3.128906 4.21875 -2.828125 C 4.40625 -2.535156 4.5 -2.210938 4.5 -1.859375 C 4.5 -1.597656 4.441406 -1.347656 4.328125 -1.109375 C 4.222656 -0.878906 4.070312 -0.675781 3.875 -0.5 C 3.675781 -0.320312 3.445312 -0.179688 3.1875 -0.078125 C 2.9375 0.015625 2.664062 0.0625 2.375 0.0625 C 1.945312 0.0625 1.570312 -0.0195312 1.25 -0.1875 C 0.925781 -0.363281 0.675781 -0.597656 0.5 -0.890625 C 0.320312 -1.179688 0.234375 -1.503906 0.234375 -1.859375 C 0.234375 -2.210938 0.320312 -2.535156 0.5 -2.828125 C 0.6875 -3.128906 0.9375 -3.363281 1.25 -3.53125 C 1.570312 -3.707031 1.945312 -3.796875 2.375 -3.796875 Z M 2.375 -0.703125 C 2.644531 -0.703125 2.878906 -0.753906 3.078125 -0.859375 C 3.273438 -0.972656 3.425781 -1.117188 3.53125 -1.296875 C 3.644531 -1.484375 3.703125 -1.671875 3.703125 -1.859375 C 3.703125 -2.066406 3.644531 -2.257812 3.53125 -2.4375 C 3.425781 -2.613281 3.273438 -2.753906 3.078125 -2.859375 C 2.878906 -2.972656 2.644531 -3.03125 2.375 -3.03125 C 2.09375 -3.03125 1.847656 -2.976562 1.640625 -2.875 C 1.441406 -2.769531 1.289062 -2.628906 1.1875 -2.453125 C 1.082031 -2.273438 1.03125 -2.078125 1.03125 -1.859375 C 1.03125 -1.671875 1.082031 -1.488281 1.1875 -1.3125 C 1.289062 -1.132812 1.441406 -0.988281 1.640625 -0.875 C 1.847656 -0.757812 2.09375 -0.703125 2.375 -0.703125 Z M 2.375 -0.703125 "/></g></g></g><g fill="#000000" fill-opacity="1"><g transform="translate(48.898945, 120.410132)"><g><path d="M 1.828125 -5.359375 L 3.078125 -5.359375 L 3.078125 -4.25 C 3.035156 -4.363281 2.972656 -4.46875 2.890625 -4.5625 C 2.816406 -4.664062 2.707031 -4.71875 2.5625 -4.71875 L 2.0625 -4.71875 C 1.851562 -4.71875 1.691406 -4.679688 1.578125 -4.609375 C 1.460938 -4.546875 1.40625 -4.40625 1.40625 -4.1875 L 1.40625 -3.71875 L 2.640625 -3.71875 L 2.640625 -2.953125 L 1.40625 -2.953125 L 1.40625 -0.625 C 1.40625 -0.488281 1.429688 -0.375 1.484375 -0.28125 C 1.546875 -0.1875 1.601562 -0.113281 1.65625 -0.0625 C 1.71875 -0.0195312 1.75 0 1.75 0 L 0.265625 0 C 0.265625 0 0.289062 -0.0195312 0.34375 -0.0625 C 0.40625 -0.113281 0.460938 -0.1875 0.515625 -0.28125 C 0.578125 -0.375 0.609375 -0.488281 0.609375 -0.625 L 0.609375 -2.953125 L 0.1875 -2.953125 L 0.609375 -3.71875 L 0.609375 -4.140625 C 0.609375 -4.367188 0.660156 -4.570312 0.765625 -4.75 C 0.878906 -4.9375 1.023438 -5.082031 1.203125 -5.1875 C 1.390625 -5.300781 1.597656 -5.359375 1.828125 -5.359375 Z M 1.828125 -5.359375 "/></g></g></g><g fill="#000000" fill-opacity="1"><g transform="translate(51.661367, 120.410132)"><g><path d="M 1.828125 -5.359375 L 3.078125 -5.359375 L 3.078125 -4.25 C 3.035156 -4.363281 2.972656 -4.46875 2.890625 -4.5625 C 2.816406 -4.664062 2.707031 -4.71875 2.5625 -4.71875 L 2.0625 -4.71875 C 1.851562 -4.71875 1.691406 -4.679688 1.578125 -4.609375 C 1.460938 -4.546875 1.40625 -4.40625 1.40625 -4.1875 L 1.40625 -3.71875 L 2.640625 -3.71875 L 2.640625 -2.953125 L 1.40625 -2.953125 L 1.40625 -0.625 C 1.40625 -0.488281 1.429688 -0.375 1.484375 -0.28125 C 1.546875 -0.1875 1.601562 -0.113281 1.65625 -0.0625 C 1.71875 -0.0195312 1.75 0 1.75 0 L 0.265625 0 C 0.265625 0 0.289062 -0.0195312 0.34375 -0.0625 C 0.40625 -0.113281 0.460938 -0.1875 0.515625 -0.28125 C 0.578125 -0.375 0.609375 -0.488281 0.609375 -0.625 L 0.609375 -2.953125 L 0.1875 -2.953125 L 0.609375 -3.71875 L 0.609375 -4.140625 C 0.609375 -4.367188 0.660156 -4.570312 0.765625 -4.75 C 0.878906 -4.9375 1.023438 -5.082031 1.203125 -5.1875 C 1.390625 -5.300781 1.597656 -5.359375 1.828125 -5.359375 Z M 1.828125 -5.359375 "/></g></g></g><g fill="#000000" fill-opacity="1"><g transform="translate(54.42379, 120.410132)"><g><path d="M 2.53125 -0.703125 C 2.851562 -0.703125 3.113281 -0.734375 3.3125 -0.796875 C 3.519531 -0.867188 3.679688 -0.945312 3.796875 -1.03125 C 3.910156 -1.125 3.988281 -1.203125 4.03125 -1.265625 C 4.070312 -1.335938 4.09375 -1.375 4.09375 -1.375 L 4.4375 -1.171875 C 4.4375 -1.171875 4.414062 -1.128906 4.375 -1.046875 C 4.34375 -0.960938 4.285156 -0.859375 4.203125 -0.734375 C 4.117188 -0.609375 4.003906 -0.484375 3.859375 -0.359375 C 3.710938 -0.242188 3.53125 -0.144531 3.3125 -0.0625 C 3.101562 0.0195312 2.847656 0.0625 2.546875 0.0625 C 2.171875 0.0625 1.847656 0.015625 1.578125 -0.078125 C 1.316406 -0.171875 1.097656 -0.296875 0.921875 -0.453125 C 0.742188 -0.609375 0.601562 -0.769531 0.5 -0.9375 C 0.394531 -1.113281 0.320312 -1.28125 0.28125 -1.4375 C 0.238281 -1.601562 0.21875 -1.742188 0.21875 -1.859375 C 0.21875 -2.054688 0.253906 -2.265625 0.328125 -2.484375 C 0.410156 -2.710938 0.535156 -2.925781 0.703125 -3.125 C 0.878906 -3.320312 1.101562 -3.484375 1.375 -3.609375 C 1.65625 -3.734375 1.992188 -3.796875 2.390625 -3.796875 C 2.785156 -3.796875 3.117188 -3.742188 3.390625 -3.640625 C 3.660156 -3.546875 3.875 -3.425781 4.03125 -3.28125 C 4.195312 -3.144531 4.3125 -3 4.375 -2.84375 C 4.445312 -2.695312 4.484375 -2.578125 4.484375 -2.484375 C 4.484375 -2.347656 4.429688 -2.203125 4.328125 -2.046875 C 4.222656 -1.898438 4.066406 -1.769531 3.859375 -1.65625 C 3.660156 -1.550781 3.394531 -1.5 3.0625 -1.5 C 2.78125 -1.5 2.5 -1.515625 2.21875 -1.546875 C 1.945312 -1.578125 1.703125 -1.613281 1.484375 -1.65625 C 1.265625 -1.695312 1.113281 -1.726562 1.03125 -1.75 C 1.03125 -1.550781 1.078125 -1.375 1.171875 -1.21875 C 1.265625 -1.0625 1.421875 -0.9375 1.640625 -0.84375 C 1.859375 -0.75 2.15625 -0.703125 2.53125 -0.703125 Z M 2.390625 -3.03125 C 1.984375 -3.03125 1.671875 -2.945312 1.453125 -2.78125 C 1.242188 -2.613281 1.113281 -2.398438 1.0625 -2.140625 C 1.125 -2.128906 1.226562 -2.109375 1.375 -2.078125 C 1.53125 -2.054688 1.707031 -2.03125 1.90625 -2 C 2.101562 -1.976562 2.304688 -1.96875 2.515625 -1.96875 C 2.722656 -1.96875 2.914062 -1.984375 3.09375 -2.015625 C 3.269531 -2.054688 3.410156 -2.117188 3.515625 -2.203125 C 3.628906 -2.285156 3.6875 -2.40625 3.6875 -2.5625 C 3.6875 -2.71875 3.59375 -2.832031 3.40625 -2.90625 C 3.21875 -2.988281 2.878906 -3.03125 2.390625 -3.03125 Z M 2.390625 -3.03125 "/></g></g></g><g fill="#000000" fill-opacity="1"><g transform="translate(59.14732, 120.410132)"><g><path d="M 2.53125 -0.703125 C 2.851562 -0.703125 3.113281 -0.734375 3.3125 -0.796875 C 3.519531 -0.867188 3.679688 -0.945312 3.796875 -1.03125 C 3.910156 -1.125 3.988281 -1.203125 4.03125 -1.265625 C 4.070312 -1.335938 4.09375 -1.375 4.09375 -1.375 L 4.4375 -1.171875 C 4.4375 -1.171875 4.414062 -1.128906 4.375 -1.046875 C 4.34375 -0.960938 4.285156 -0.859375 4.203125 -0.734375 C 4.117188 -0.609375 4.003906 -0.484375 3.859375 -0.359375 C 3.710938 -0.242188 3.53125 -0.144531 3.3125 -0.0625 C 3.101562 0.0195312 2.847656 0.0625 2.546875 0.0625 C 2.171875 0.0625 1.847656 0.015625 1.578125 -0.078125 C 1.316406 -0.171875 1.097656 -0.296875 0.921875 -0.453125 C 0.742188 -0.609375 0.601562 -0.769531 0.5 -0.9375 C 0.394531 -1.113281 0.320312 -1.28125 0.28125 -1.4375 C 0.238281 -1.601562 0.21875 -1.742188 0.21875 -1.859375 C 0.21875 -2.054688 0.253906 -2.265625 0.328125 -2.484375 C 0.410156 -2.710938 0.535156 -2.925781 0.703125 -3.125 C 0.878906 -3.320312 1.101562 -3.484375 1.375 -3.609375 C 1.65625 -3.734375 1.992188 -3.796875 2.390625 -3.796875 C 2.785156 -3.796875 3.117188 -3.742188 3.390625 -3.640625 C 3.660156 -3.546875 3.875 -3.425781 4.03125 -3.28125 C 4.195312 -3.144531 4.3125 -3 4.375 -2.84375 C 4.445312 -2.695312 4.484375 -2.578125 4.484375 -2.484375 C 4.484375 -2.347656 4.429688 -2.203125 4.328125 -2.046875 C 4.222656 -1.898438 4.066406 -1.769531 3.859375 -1.65625 C 3.660156 -1.550781 3.394531 -1.5 3.0625 -1.5 C 2.78125 -1.5 2.5 -1.515625 2.21875 -1.546875 C 1.945312 -1.578125 1.703125 -1.613281 1.484375 -1.65625 C 1.265625 -1.695312 1.113281 -1.726562 1.03125 -1.75 C 1.03125 -1.550781 1.078125 -1.375 1.171875 -1.21875 C 1.265625 -1.0625 1.421875 -0.9375 1.640625 -0.84375 C 1.859375 -0.75 2.15625 -0.703125 2.53125 -0.703125 Z M 2.390625 -3.03125 C 1.984375 -3.03125 1.671875 -2.945312 1.453125 -2.78125 C 1.242188 -2.613281 1.113281 -2.398438 1.0625 -2.140625 C 1.125 -2.128906 1.226562 -2.109375 1.375 -2.078125 C 1.53125 -2.054688 1.707031 -2.03125 1.90625 -2 C 2.101562 -1.976562 2.304688 -1.96875 2.515625 -1.96875 C 2.722656 -1.96875 2.914062 -1.984375 3.09375 -2.015625 C 3.269531 -2.054688 3.410156 -2.117188 3.515625 -2.203125 C 3.628906 -2.285156 3.6875 -2.40625 3.6875 -2.5625 C 3.6875 -2.71875 3.59375 -2.832031 3.40625 -2.90625 C 3.21875 -2.988281 2.878906 -3.03125 2.390625 -3.03125 Z M 2.390625 -3.03125 "/></g></g></g><g fill="#000000" fill-opacity="1"><g transform="translate(63.87085, 120.410132)"><g/></g></g><g fill="#000000" fill-opacity="1"><g transform="translate(65.979569, 120.410132)"><g><path d="M 1.15625 -3.515625 C 1.15625 -3.378906 1.222656 -3.265625 1.359375 -3.171875 C 1.503906 -3.085938 1.691406 -3.015625 1.921875 -2.953125 C 2.148438 -2.890625 2.398438 -2.828125 2.671875 -2.765625 C 2.953125 -2.703125 3.226562 -2.632812 3.5 -2.5625 C 3.78125 -2.488281 4.035156 -2.398438 4.265625 -2.296875 C 4.503906 -2.191406 4.691406 -2.054688 4.828125 -1.890625 C 4.960938 -1.734375 5.03125 -1.535156 5.03125 -1.296875 C 5.03125 -1.054688 4.9375 -0.832031 4.75 -0.625 C 4.570312 -0.414062 4.304688 -0.242188 3.953125 -0.109375 C 3.609375 0.015625 3.179688 0.078125 2.671875 0.078125 C 1.921875 0.078125 1.332031 -0.0820312 0.90625 -0.40625 C 0.476562 -0.738281 0.265625 -1.257812 0.265625 -1.96875 L 1.046875 -1.890625 C 1.046875 -1.628906 1.085938 -1.414062 1.171875 -1.25 C 1.253906 -1.09375 1.367188 -0.972656 1.515625 -0.890625 C 1.671875 -0.804688 1.84375 -0.753906 2.03125 -0.734375 C 2.226562 -0.710938 2.441406 -0.703125 2.671875 -0.703125 C 3.234375 -0.703125 3.632812 -0.75 3.875 -0.84375 C 4.113281 -0.945312 4.234375 -1.097656 4.234375 -1.296875 C 4.234375 -1.410156 4.164062 -1.5 4.03125 -1.5625 C 3.894531 -1.632812 3.707031 -1.695312 3.46875 -1.75 C 3.238281 -1.8125 2.988281 -1.867188 2.71875 -1.921875 C 2.445312 -1.984375 2.171875 -2.050781 1.890625 -2.125 C 1.609375 -2.207031 1.351562 -2.304688 1.125 -2.421875 C 0.894531 -2.546875 0.707031 -2.695312 0.5625 -2.875 C 0.425781 -3.050781 0.359375 -3.265625 0.359375 -3.515625 C 0.359375 -3.765625 0.4375 -4 0.59375 -4.21875 C 0.75 -4.445312 0.992188 -4.628906 1.328125 -4.765625 C 1.660156 -4.910156 2.101562 -4.984375 2.65625 -4.984375 C 3.082031 -4.984375 3.441406 -4.925781 3.734375 -4.8125 C 4.035156 -4.707031 4.273438 -4.566406 4.453125 -4.390625 C 4.640625 -4.222656 4.773438 -4.039062 4.859375 -3.84375 C 4.941406 -3.644531 4.984375 -3.457031 4.984375 -3.28125 L 4.203125 -3.34375 C 4.203125 -3.675781 4.066406 -3.90625 3.796875 -4.03125 C 3.535156 -4.15625 3.15625 -4.21875 2.65625 -4.21875 C 2.144531 -4.21875 1.765625 -4.164062 1.515625 -4.0625 C 1.273438 -3.96875 1.15625 -3.785156 1.15625 -3.515625 Z M 1.15625 -3.515625 "/></g></g></g><g fill="#000000" fill-opacity="1"><g transform="translate(71.279484, 120.410132)"><g><path d="M 3.078125 0 C 3.078125 0 3.101562 -0.0195312 3.15625 -0.0625 C 3.21875 -0.113281 3.273438 -0.1875 3.328125 -0.28125 C 3.390625 -0.375 3.421875 -0.488281 3.421875 -0.625 L 3.421875 -1.96875 C 3.421875 -2.15625 3.394531 -2.328125 3.34375 -2.484375 C 3.300781 -2.648438 3.222656 -2.78125 3.109375 -2.875 C 3.003906 -2.976562 2.859375 -3.03125 2.671875 -3.03125 C 2.390625 -3.03125 2.148438 -2.972656 1.953125 -2.859375 C 1.753906 -2.742188 1.597656 -2.597656 1.484375 -2.421875 C 1.378906 -2.253906 1.328125 -2.085938 1.328125 -1.921875 L 1.328125 -0.625 C 1.328125 -0.488281 1.351562 -0.375 1.40625 -0.28125 C 1.457031 -0.1875 1.515625 -0.113281 1.578125 -0.0625 C 1.640625 -0.0195312 1.671875 0 1.671875 0 L 0.1875 0 C 0.1875 0 0.210938 -0.0195312 0.265625 -0.0625 C 0.328125 -0.113281 0.382812 -0.1875 0.4375 -0.28125 C 0.5 -0.375 0.53125 -0.488281 0.53125 -0.625 L 0.53125 -4.734375 C 0.53125 -4.878906 0.5 -5 0.4375 -5.09375 C 0.382812 -5.1875 0.328125 -5.253906 0.265625 -5.296875 C 0.210938 -5.335938 0.1875 -5.359375 0.1875 -5.359375 L 1.328125 -5.359375 L 1.328125 -2.78125 C 1.472656 -3.082031 1.648438 -3.328125 1.859375 -3.515625 C 2.066406 -3.703125 2.335938 -3.796875 2.671875 -3.796875 C 2.984375 -3.796875 3.253906 -3.710938 3.484375 -3.546875 C 3.710938 -3.378906 3.890625 -3.148438 4.015625 -2.859375 C 4.140625 -2.566406 4.207031 -2.242188 4.21875 -1.890625 L 4.203125 -0.625 C 4.203125 -0.488281 4.226562 -0.375 4.28125 -0.28125 C 4.34375 -0.1875 4.40625 -0.113281 4.46875 -0.0625 C 4.53125 -0.0195312 4.5625 0 4.5625 0 Z M 3.078125 0 "/></g></g></g><g fill="#000000" fill-opacity="1"><g transform="translate(75.988958, 120.410132)"><g><path d="M 2.375 -3.796875 C 2.769531 -3.796875 3.128906 -3.707031 3.453125 -3.53125 C 3.773438 -3.363281 4.03125 -3.128906 4.21875 -2.828125 C 4.40625 -2.535156 4.5 -2.210938 4.5 -1.859375 C 4.5 -1.597656 4.441406 -1.347656 4.328125 -1.109375 C 4.222656 -0.878906 4.070312 -0.675781 3.875 -0.5 C 3.675781 -0.320312 3.445312 -0.179688 3.1875 -0.078125 C 2.9375 0.015625 2.664062 0.0625 2.375 0.0625 C 1.945312 0.0625 1.570312 -0.0195312 1.25 -0.1875 C 0.925781 -0.363281 0.675781 -0.597656 0.5 -0.890625 C 0.320312 -1.179688 0.234375 -1.503906 0.234375 -1.859375 C 0.234375 -2.210938 0.320312 -2.535156 0.5 -2.828125 C 0.6875 -3.128906 0.9375 -3.363281 1.25 -3.53125 C 1.570312 -3.707031 1.945312 -3.796875 2.375 -3.796875 Z M 2.375 -0.703125 C 2.644531 -0.703125 2.878906 -0.753906 3.078125 -0.859375 C 3.273438 -0.972656 3.425781 -1.117188 3.53125 -1.296875 C 3.644531 -1.484375 3.703125 -1.671875 3.703125 -1.859375 C 3.703125 -2.066406 3.644531 -2.257812 3.53125 -2.4375 C 3.425781 -2.613281 3.273438 -2.753906 3.078125 -2.859375 C 2.878906 -2.972656 2.644531 -3.03125 2.375 -3.03125 C 2.09375 -3.03125 1.847656 -2.976562 1.640625 -2.875 C 1.441406 -2.769531 1.289062 -2.628906 1.1875 -2.453125 C 1.082031 -2.273438 1.03125 -2.078125 1.03125 -1.859375 C 1.03125 -1.671875 1.082031 -1.488281 1.1875 -1.3125 C 1.289062 -1.132812 1.441406 -0.988281 1.640625 -0.875 C 1.847656 -0.757812 2.09375 -0.703125 2.375 -0.703125 Z M 2.375 -0.703125 "/></g></g></g><g fill="#000000" fill-opacity="1"><g transform="translate(80.719519, 120.410132)"><g><path d="M 2.671875 -3.796875 C 3.054688 -3.796875 3.394531 -3.707031 3.6875 -3.53125 C 3.976562 -3.363281 4.207031 -3.128906 4.375 -2.828125 C 4.539062 -2.535156 4.625 -2.210938 4.625 -1.859375 C 4.625 -1.503906 4.535156 -1.179688 4.359375 -0.890625 C 4.191406 -0.597656 3.960938 -0.363281 3.671875 -0.1875 C 3.378906 -0.0195312 3.046875 0.0625 2.671875 0.0625 C 2.335938 0.0625 2.0625 -0.0234375 1.84375 -0.203125 C 1.632812 -0.390625 1.457031 -0.640625 1.3125 -0.953125 L 1.3125 1 C 1.3125 1.144531 1.335938 1.265625 1.390625 1.359375 C 1.453125 1.453125 1.507812 1.519531 1.5625 1.5625 C 1.625 1.613281 1.65625 1.640625 1.65625 1.640625 L 0.171875 1.640625 C 0.171875 1.640625 0.195312 1.613281 0.25 1.5625 C 0.3125 1.519531 0.367188 1.453125 0.421875 1.359375 C 0.484375 1.265625 0.515625 1.144531 0.515625 1 L 0.515625 -3.09375 C 0.515625 -3.238281 0.484375 -3.351562 0.421875 -3.4375 C 0.367188 -3.53125 0.3125 -3.597656 0.25 -3.640625 C 0.195312 -3.691406 0.171875 -3.71875 0.171875 -3.71875 L 1.65625 -3.71875 C 1.65625 -3.71875 1.625 -3.691406 1.5625 -3.640625 C 1.507812 -3.597656 1.453125 -3.53125 1.390625 -3.4375 C 1.335938 -3.351562 1.3125 -3.238281 1.3125 -3.09375 C 1.3125 -3.09375 1.3125 -3.0625 1.3125 -3 C 1.3125 -2.945312 1.3125 -2.875 1.3125 -2.78125 C 1.457031 -3.082031 1.632812 -3.328125 1.84375 -3.515625 C 2.0625 -3.703125 2.335938 -3.796875 2.671875 -3.796875 Z M 2.671875 -0.703125 C 2.898438 -0.703125 3.097656 -0.75 3.265625 -0.84375 C 3.441406 -0.9375 3.578125 -1.070312 3.671875 -1.25 C 3.773438 -1.425781 3.828125 -1.628906 3.828125 -1.859375 C 3.828125 -2.085938 3.773438 -2.289062 3.671875 -2.46875 C 3.566406 -2.644531 3.425781 -2.78125 3.25 -2.875 C 3.082031 -2.976562 2.890625 -3.03125 2.671875 -3.03125 C 2.335938 -3.03125 2.070312 -2.976562 1.875 -2.875 C 1.675781 -2.769531 1.53125 -2.628906 1.4375 -2.453125 C 1.351562 -2.273438 1.3125 -2.078125 1.3125 -1.859375 C 1.3125 -1.492188 1.410156 -1.207031 1.609375 -1 C 1.816406 -0.800781 2.171875 -0.703125 2.671875 -0.703125 Z M 2.671875 -0.703125 "/></g></g></g></svg>